<mxfile host="app.diagrams.net" modified="2024-07-08T04:44:53.403Z" agent="Mozilla/5.0 (Windows NT 10.0; Win64; x64) AppleWebKit/537.36 (KHTML, like Gecko) Chrome/126.0.0.0 Safari/537.36" version="24.4.14" etag="0KfpQ8yeLLcw3zy4n4NA" type="github">
  <diagram name="페이지-1" id="tjgAfjmDA4C24se_uthZ">
    <mxGraphModel>
      <root>
        <mxCell id="0" />
        <mxCell id="1" parent="0" />
      </root>
    </mxGraphModel>
  </diagram>
</mxfile>
